<svg version="1.2" width="210mm" height="297mm" viewBox="0 0 21000 29700" preserveAspectRatio="xMidYMid" fill-rule="evenodd" stroke-width="28.222" stroke-linejoin="round" xmlns="http://www.w3.org/2000/svg" xml:space="preserve"><defs class="ClipPathGroup"><clipPath id="a" clipPathUnits="userSpaceOnUse"><path d="M0 0h21000v29700H0z"/></clipPath></defs><g class="SlideGroup"><g class="Slide" clip-path="url(#a)"><g class="Page"><g class="Group"><g class="com.sun.star.drawing.PolyPolygonShape"><path class="BoundingBox" fill="none" d="M8224 11399h5378v5378H8224z"/><path fill="#FFF" d="M10913 16775H8225v-5375h5375v5375h-2687z"/></g><g class="com.sun.star.drawing.PolyPolygonShape"><path class="BoundingBox" fill="none" d="M8907 12077h4012v4023H8907z"/><path fill="#3B82F0" d="M10913 16098H8908v-4020h4009v4020h-2004z"/></g><g class="com.sun.star.drawing.ClosedBezierShape"><path class="BoundingBox" fill="none" d="M10366 12709h1096v2757h-1096z"/><path fill="#FFF" d="M11460 13253c0 95-25 188-73 272-47 82-117 150-200 198-29 17-60 31-91 42v1520c0 31-9 62-25 89s-38 51-66 66c-28 16-61 24-92 24-32 0-63-8-91-24-28-15-51-39-67-66-15-27-24-58-24-89v-1520c-31-12-62-25-91-42-83-48-152-116-200-198-48-84-73-177-73-272s25-188 73-272c48-82 117-150 200-198 84-47 178-73 274-73s190 26 273 73c83 48 153 116 200 198 48 84 73 177 73 272z"/></g></g></g></g></g></svg>